<?xml version="1.0" encoding="utf-8"?>
<!-- Generator: Adobe Illustrator 23.0.2, SVG Export Plug-In . SVG Version: 6.00 Build 0)  -->
<svg version="1.1" id="Layer_1" xmlns="http://www.w3.org/2000/svg" xmlns:xlink="http://www.w3.org/1999/xlink" x="0px" y="0px"
	 viewBox="0 0 492.1 126" style="enable-background:new 0 0 492.1 126;" xml:space="preserve">
<style type="text/css">
	.st0{fill:#FFFFFF;}
</style>
<g>
	<g>
		<path class="st0" d="M244.1,30.1c-0.8-0.3-1.7-0.5-2.7-0.6c-1-0.2-2.1-0.3-3.1-0.3c-2,0-3.6,0.3-4.8,1c-1.2,0.7-2.1,1.6-2.8,2.8
			c-0.7,1.2-1.2,2.5-1.4,3.9c-0.3,1.5-0.4,2.9-0.4,4.4v6.4h14.3v15.7h-14.3v48.4h-21.1V63.5h-11.7V47.8h11.7v-6.2
			c0-3.9,0.4-7.7,1.3-11.3c0.9-3.6,2.3-6.7,4.4-9.4c2.1-2.7,4.9-4.8,8.5-6.4c3.6-1.6,8-2.4,13.3-2.4c1.8,0,3.6,0.1,5.3,0.3
			c1.8,0.2,3.4,0.5,4.8,1L244.1,30.1z"/>
		<path class="st0" d="M293.3,111.8V103h-0.3c-0.8,1.5-1.8,2.8-3,4.1c-1.2,1.3-2.7,2.4-4.4,3.3c-1.7,0.9-3.5,1.7-5.5,2.3
			c-2,0.6-4.1,0.9-6.4,0.9c-4.3,0-7.9-0.8-10.9-2.3c-3-1.5-5.4-3.5-7.2-6c-1.8-2.4-3.2-5.2-4-8.4c-0.8-3.1-1.2-6.3-1.2-9.6V47.8
			h21.2v34.7c0,1.8,0.1,3.5,0.4,5.1c0.3,1.6,0.7,3.1,1.5,4.4c0.7,1.3,1.7,2.3,2.9,3c1.2,0.7,2.8,1.1,4.8,1.1c3.7,0,6.5-1.4,8.4-4.1
			c1.9-2.7,2.9-6,2.9-9.7V47.8h21.1v64.1H293.3z"/>
		<path class="st0" d="M367.8,66.7c-1.7-1.6-3.7-3-6-4.1c-2.3-1.1-4.8-1.7-7.3-1.7c-2,0-3.8,0.4-5.5,1.2c-1.7,0.8-2.5,2.1-2.5,4
			c0,1.8,0.9,3.1,2.8,3.9c1.8,0.8,4.8,1.6,8.9,2.6c2.4,0.5,4.8,1.2,7.3,2.2c2.4,0.9,4.7,2.2,6.6,3.7c2,1.5,3.6,3.4,4.8,5.7
			c1.2,2.2,1.8,4.9,1.8,8c0,4-0.8,7.4-2.4,10.2c-1.6,2.8-3.8,5-6.4,6.8c-2.6,1.7-5.6,3-8.8,3.7c-3.3,0.8-6.5,1.2-9.8,1.2
			c-5.2,0-10.4-0.8-15.4-2.5c-5-1.7-9.2-4.1-12.5-7.4l11.8-12.5c1.9,2.1,4.2,3.8,6.9,5.1c2.7,1.4,5.7,2.1,8.7,2.1
			c1.7,0,3.4-0.4,5.1-1.2c1.7-0.8,2.5-2.3,2.5-4.3c0-2-1-3.4-3.1-4.4c-2.1-0.9-5.3-1.9-9.7-3c-2.2-0.5-4.5-1.2-6.7-2.1
			c-2.2-0.9-4.2-2-6-3.5c-1.8-1.5-3.2-3.3-4.3-5.4c-1.1-2.1-1.7-4.7-1.7-7.7c0-3.9,0.8-7.1,2.4-9.8c1.6-2.7,3.7-4.9,6.3-6.6
			c2.6-1.7,5.4-3,8.6-3.8c3.1-0.8,6.2-1.2,9.3-1.2c4.8,0,9.5,0.8,14.1,2.3c4.6,1.5,8.5,3.8,11.6,6.8L367.8,66.7z"/>
		<path class="st0" d="M454.4,80.6c0,0.9,0,1.7,0,2.6c0,0.9,0,1.7-0.1,2.4h-46.4c0.2,1.8,0.7,3.4,1.6,4.9c0.9,1.5,2.1,2.7,3.5,3.8
			c1.4,1.1,3,1.9,4.8,2.5c1.8,0.6,3.6,0.9,5.5,0.9c3.3,0,6.2-0.6,8.5-1.9c2.3-1.2,4.2-2.9,5.7-4.8l14.7,9.3c-3,4.4-7,7.7-11.9,10.1
			c-4.9,2.4-10.7,3.5-17.2,3.5c-4.8,0-9.4-0.8-13.6-2.3c-4.3-1.5-8-3.7-11.3-6.6c-3.2-2.9-5.7-6.4-7.6-10.6c-1.8-4.2-2.8-9-2.8-14.4
			c0-5.2,0.9-10,2.7-14.2c1.8-4.2,4.2-7.8,7.3-10.8c3.1-3,6.7-5.3,10.9-6.9c4.2-1.6,8.7-2.4,13.6-2.4c4.7,0,9,0.8,13,2.4
			c3.9,1.6,7.3,3.9,10.2,6.9c2.8,3,5,6.6,6.6,10.9C453.6,70.2,454.4,75.1,454.4,80.6z M435,72.5c0-3.3-1.1-6.2-3.2-8.6
			c-2.1-2.4-5.3-3.6-9.5-3.6c-2.1,0-3.9,0.3-5.7,1c-1.7,0.6-3.2,1.5-4.5,2.6c-1.3,1.1-2.3,2.4-3.1,3.9c-0.8,1.5-1.2,3.1-1.3,4.7H435
			z"/>
	</g>
	<g>
		<path class="st0" d="M24.8,47l14.6,49.4h0.3L55.2,47h13.5l15.7,49.4h0.3L99.3,47h13.5l-21.4,64.7H78L62,63.1h-0.3l-15.8,48.6H32.5
			L10.9,47H24.8z"/>
		<path class="st0" d="M186.1,78.8c0,0.7,0,1.5,0,2.2c0,0.7,0,1.5-0.1,2.2h-51.5c0.1,2.7,0.7,5.3,1.8,7.7c1.1,2.4,2.7,4.5,4.6,6.2
			c1.9,1.8,4.1,3.1,6.6,4.1c2.5,1,5.2,1.5,8,1.5c4.4,0,8.1-1,11.3-2.9c3.2-1.9,5.7-4.2,7.5-7l9,7.2c-3.5,4.6-7.5,8-12.2,10.1
			c-4.7,2.2-9.9,3.2-15.6,3.2c-4.9,0-9.5-0.8-13.7-2.5c-4.2-1.6-7.8-3.9-10.8-6.9c-3-3-5.4-6.5-7.1-10.7c-1.7-4.2-2.6-8.8-2.6-13.9
			c0-5,0.8-9.6,2.5-13.9c1.7-4.2,4-7.9,7-10.9c3-3,6.6-5.3,10.7-7c4.1-1.7,8.5-2.5,13.3-2.5c4.7,0,9.1,0.8,12.9,2.3
			c3.9,1.5,7.2,3.8,9.9,6.7c2.7,2.9,4.8,6.4,6.2,10.6C185.4,68.9,186.1,73.6,186.1,78.8z M173,73.6c-0.1-2.5-0.5-4.9-1.3-7.2
			c-0.8-2.2-1.9-4.2-3.4-5.8c-1.5-1.6-3.4-2.9-5.6-3.9c-2.2-1-4.8-1.4-7.9-1.4c-2.7,0-5.3,0.5-7.7,1.4c-2.4,1-4.5,2.3-6.3,3.9
			c-1.8,1.6-3.2,3.6-4.4,5.8c-1.1,2.2-1.8,4.6-2,7.2H173z"/>
	</g>
	<circle class="st0" cx="471.5" cy="103.9" r="9.7"/>
</g>
</svg>
